<?xml version="1.0" encoding="UTF-8" standalone="no"?>
<svg
   xmlns:dc="http://purl.org/dc/elements/1.1/"
   xmlns:cc="http://creativecommons.org/ns#"
   xmlns:rdf="http://www.w3.org/1999/02/22-rdf-syntax-ns#"
   xmlns:svg="http://www.w3.org/2000/svg"
   xmlns="http://www.w3.org/2000/svg"
   xmlns:xlink="http://www.w3.org/1999/xlink"
   xmlns:sodipodi="http://sodipodi.sourceforge.net/DTD/sodipodi-0.dtd"
   xmlns:inkscape="http://www.inkscape.org/namespaces/inkscape"
   height="216pt"
   version="1.1"
   viewBox="0 0 288 216"
   width="288pt"
   id="svg5671"
   sodipodi:docname="magnetization_curves.svg"
   inkscape:version="1.0.1 (3bc2e813f5, 2020-09-07)"
   inkscape:export-filename="C:\Users\Ryan Roussel\Documents\GitHub\bayesian_hysteresis\figures\magnetization_curves.png"
   inkscape:export-xdpi="300.5"
   inkscape:export-ydpi="300.5">
  <sodipodi:namedview
     pagecolor="#ffffff"
     bordercolor="#666666"
     borderopacity="1"
     objecttolerance="10"
     gridtolerance="10"
     guidetolerance="10"
     inkscape:pageopacity="0"
     inkscape:pageshadow="2"
     inkscape:window-width="1920"
     inkscape:window-height="1017"
     id="namedview5673"
     showgrid="false"
     inkscape:zoom="1.4628814"
     inkscape:cx="144.69293"
     inkscape:cy="120.97805"
     inkscape:window-x="-8"
     inkscape:window-y="-8"
     inkscape:window-maximized="1"
     inkscape:current-layer="svg5671" />
  <metadata
     id="metadata5330">
    <rdf:RDF>
      <cc:Work>
        <dc:type
           rdf:resource="http://purl.org/dc/dcmitype/StillImage" />
        <dc:date>2022-02-07T11:32:26.520211</dc:date>
        <dc:format>image/svg+xml</dc:format>
        <dc:creator>
          <cc:Agent>
            <dc:title>Matplotlib v3.4.2, https://matplotlib.org/</dc:title>
          </cc:Agent>
        </dc:creator>
      </cc:Work>
    </rdf:RDF>
  </metadata>
  <defs
     id="defs5334">
    <style
       type="text/css"
       id="style5332">*{stroke-linecap:butt;stroke-linejoin:round;}</style>
  </defs>
  <defs
     id="defs5669">
    <clipPath
       id="p2b2da042ea">
      <rect
         height="163.4"
         width="213.1"
         x="64.1"
         y="10.8"
         id="rect5666" />
    </clipPath>
  </defs>
  <g
     id="g6015">
    <g
       id="figure_1">
      <g
         id="patch_1">
        <path
           d="M 0 216  L 288 216  L 288 0  L 0 0  z "
           style="fill:none;"
           id="path5336" />
      </g>
      <g
         id="axes_1">
        <g
           id="patch_2">
          <path
             d="M 64.1 174.2  L 277.2 174.2  L 277.2 10.8  L 64.1 10.8  z "
             style="fill:#ffffff;"
             id="path5339" />
        </g>
        <g
           id="matplotlib.axis_1">
          <g
             id="xtick_1">
            <g
               id="line2d_1">
              <defs
                 id="defs5343">
                <path
                   d="M 0 0  L 0 3.5  "
                   id="m70d2e9e172"
                   style="stroke:#000000;stroke-width:0.8;" />
              </defs>
              <g
                 id="g5347">
                <use
                   style="stroke:#000000;stroke-width:0.8;"
                   x="73.786364"
                   xlink:href="#m70d2e9e172"
                   y="174.2"
                   id="use5345" />
              </g>
            </g>
            <g
               id="text_1">
              <!-- −1.0 -->
              <g
                 transform="translate(61.644957 188.798438)scale(0.1 -0.1)"
                 id="g5364">
                <defs
                   id="defs5354">
                  <path
                     d="M 678 2272  L 4684 2272  L 4684 1741  L 678 1741  L 678 2272  z "
                     id="DejaVuSans-2212"
                     transform="scale(0.015625)" />
                  <path
                     d="M 794 531  L 1825 531  L 1825 4091  L 703 3866  L 703 4441  L 1819 4666  L 2450 4666  L 2450 531  L 3481 531  L 3481 0  L 794 0  L 794 531  z "
                     id="DejaVuSans-31"
                     transform="scale(0.015625)" />
                  <path
                     d="M 684 794  L 1344 794  L 1344 0  L 684 0  L 684 794  z "
                     id="DejaVuSans-2e"
                     transform="scale(0.015625)" />
                  <path
                     d="M 2034 4250  Q 1547 4250 1301 3770  Q 1056 3291 1056 2328  Q 1056 1369 1301 889  Q 1547 409 2034 409  Q 2525 409 2770 889  Q 3016 1369 3016 2328  Q 3016 3291 2770 3770  Q 2525 4250 2034 4250  z M 2034 4750  Q 2819 4750 3233 4129  Q 3647 3509 3647 2328  Q 3647 1150 3233 529  Q 2819 -91 2034 -91  Q 1250 -91 836 529  Q 422 1150 422 2328  Q 422 3509 836 4129  Q 1250 4750 2034 4750  z "
                     id="DejaVuSans-30"
                     transform="scale(0.015625)" />
                </defs>
                <use
                   xlink:href="#DejaVuSans-2212"
                   id="use5356" />
                <use
                   x="83.789062"
                   xlink:href="#DejaVuSans-31"
                   id="use5358" />
                <use
                   x="147.412109"
                   xlink:href="#DejaVuSans-2e"
                   id="use5360" />
                <use
                   x="179.199219"
                   xlink:href="#DejaVuSans-30"
                   id="use5362" />
              </g>
            </g>
          </g>
          <g
             id="xtick_2">
            <g
               id="line2d_2">
              <g
                 id="g5370">
                <use
                   style="stroke:#000000;stroke-width:0.8;"
                   x="122.218182"
                   xlink:href="#m70d2e9e172"
                   y="174.2"
                   id="use5368" />
              </g>
            </g>
            <g
               id="text_2">
              <!-- −0.5 -->
              <g
                 transform="translate(110.076776 188.798438)scale(0.1 -0.1)"
                 id="g5384">
                <defs
                   id="defs5374">
                  <path
                     d="M 691 4666  L 3169 4666  L 3169 4134  L 1269 4134  L 1269 2991  Q 1406 3038 1543 3061  Q 1681 3084 1819 3084  Q 2600 3084 3056 2656  Q 3513 2228 3513 1497  Q 3513 744 3044 326  Q 2575 -91 1722 -91  Q 1428 -91 1123 -41  Q 819 9 494 109  L 494 744  Q 775 591 1075 516  Q 1375 441 1709 441  Q 2250 441 2565 725  Q 2881 1009 2881 1497  Q 2881 1984 2565 2268  Q 2250 2553 1709 2553  Q 1456 2553 1204 2497  Q 953 2441 691 2322  L 691 4666  z "
                     id="DejaVuSans-35"
                     transform="scale(0.015625)" />
                </defs>
                <use
                   xlink:href="#DejaVuSans-2212"
                   id="use5376" />
                <use
                   x="83.789062"
                   xlink:href="#DejaVuSans-30"
                   id="use5378" />
                <use
                   x="147.412109"
                   xlink:href="#DejaVuSans-2e"
                   id="use5380" />
                <use
                   x="179.199219"
                   xlink:href="#DejaVuSans-35"
                   id="use5382" />
              </g>
            </g>
          </g>
          <g
             id="xtick_3">
            <g
               id="line2d_3">
              <g
                 id="g5390">
                <use
                   style="stroke:#000000;stroke-width:0.8;"
                   x="170.65"
                   xlink:href="#m70d2e9e172"
                   y="174.2"
                   id="use5388" />
              </g>
            </g>
            <g
               id="text_3">
              <!-- 0.0 -->
              <g
                 transform="translate(162.698437 188.798438)scale(0.1 -0.1)"
                 id="g5399">
                <use
                   xlink:href="#DejaVuSans-30"
                   id="use5393" />
                <use
                   x="63.623047"
                   xlink:href="#DejaVuSans-2e"
                   id="use5395" />
                <use
                   x="95.410156"
                   xlink:href="#DejaVuSans-30"
                   id="use5397" />
              </g>
            </g>
          </g>
          <g
             id="xtick_4">
            <g
               id="line2d_4">
              <g
                 id="g5405">
                <use
                   style="stroke:#000000;stroke-width:0.8;"
                   x="219.081818"
                   xlink:href="#m70d2e9e172"
                   y="174.2"
                   id="use5403" />
              </g>
            </g>
            <g
               id="text_4">
              <!-- 0.5 -->
              <g
                 transform="translate(211.130256 188.798438)scale(0.1 -0.1)"
                 id="g5414">
                <use
                   xlink:href="#DejaVuSans-30"
                   id="use5408" />
                <use
                   x="63.623047"
                   xlink:href="#DejaVuSans-2e"
                   id="use5410" />
                <use
                   x="95.410156"
                   xlink:href="#DejaVuSans-35"
                   id="use5412" />
              </g>
            </g>
          </g>
          <g
             id="xtick_5">
            <g
               id="line2d_5">
              <g
                 id="g5420">
                <use
                   style="stroke:#000000;stroke-width:0.8;"
                   x="267.513636"
                   xlink:href="#m70d2e9e172"
                   y="174.2"
                   id="use5418" />
              </g>
            </g>
            <g
               id="text_5">
              <!-- 1.0 -->
              <g
                 transform="translate(259.562074 188.798438)scale(0.1 -0.1)"
                 id="g5429">
                <use
                   xlink:href="#DejaVuSans-31"
                   id="use5423" />
                <use
                   x="63.623047"
                   xlink:href="#DejaVuSans-2e"
                   id="use5425" />
                <use
                   x="95.410156"
                   xlink:href="#DejaVuSans-30"
                   id="use5427" />
              </g>
            </g>
          </g>
          <g
             id="text_6">
            <!-- u(t) (arb. u.) -->
            <g
               transform="translate(139.899219 202.476562)scale(0.1 -0.1)"
               id="g5471">
              <defs
                 id="defs5441">
                <path
                   d="M 544 1381  L 544 3500  L 1119 3500  L 1119 1403  Q 1119 906 1312 657  Q 1506 409 1894 409  Q 2359 409 2629 706  Q 2900 1003 2900 1516  L 2900 3500  L 3475 3500  L 3475 0  L 2900 0  L 2900 538  Q 2691 219 2414 64  Q 2138 -91 1772 -91  Q 1169 -91 856 284  Q 544 659 544 1381  z M 1991 3584  L 1991 3584  z "
                   id="DejaVuSans-75"
                   transform="scale(0.015625)" />
                <path
                   d="M 1984 4856  Q 1566 4138 1362 3434  Q 1159 2731 1159 2009  Q 1159 1288 1364 580  Q 1569 -128 1984 -844  L 1484 -844  Q 1016 -109 783 600  Q 550 1309 550 2009  Q 550 2706 781 3412  Q 1013 4119 1484 4856  L 1984 4856  z "
                   id="DejaVuSans-28"
                   transform="scale(0.015625)" />
                <path
                   d="M 1172 4494  L 1172 3500  L 2356 3500  L 2356 3053  L 1172 3053  L 1172 1153  Q 1172 725 1289 603  Q 1406 481 1766 481  L 2356 481  L 2356 0  L 1766 0  Q 1100 0 847 248  Q 594 497 594 1153  L 594 3053  L 172 3053  L 172 3500  L 594 3500  L 594 4494  L 1172 4494  z "
                   id="DejaVuSans-74"
                   transform="scale(0.015625)" />
                <path
                   d="M 513 4856  L 1013 4856  Q 1481 4119 1714 3412  Q 1947 2706 1947 2009  Q 1947 1309 1714 600  Q 1481 -109 1013 -844  L 513 -844  Q 928 -128 1133 580  Q 1338 1288 1338 2009  Q 1338 2731 1133 3434  Q 928 4138 513 4856  z "
                   id="DejaVuSans-29"
                   transform="scale(0.015625)" />
                <path
                   id="DejaVuSans-20"
                   transform="scale(0.015625)" />
                <path
                   d="M 2194 1759  Q 1497 1759 1228 1600  Q 959 1441 959 1056  Q 959 750 1161 570  Q 1363 391 1709 391  Q 2188 391 2477 730  Q 2766 1069 2766 1631  L 2766 1759  L 2194 1759  z M 3341 1997  L 3341 0  L 2766 0  L 2766 531  Q 2569 213 2275 61  Q 1981 -91 1556 -91  Q 1019 -91 701 211  Q 384 513 384 1019  Q 384 1609 779 1909  Q 1175 2209 1959 2209  L 2766 2209  L 2766 2266  Q 2766 2663 2505 2880  Q 2244 3097 1772 3097  Q 1472 3097 1187 3025  Q 903 2953 641 2809  L 641 3341  Q 956 3463 1253 3523  Q 1550 3584 1831 3584  Q 2591 3584 2966 3190  Q 3341 2797 3341 1997  z "
                   id="DejaVuSans-61"
                   transform="scale(0.015625)" />
                <path
                   d="M 2631 2963  Q 2534 3019 2420 3045  Q 2306 3072 2169 3072  Q 1681 3072 1420 2755  Q 1159 2438 1159 1844  L 1159 0  L 581 0  L 581 3500  L 1159 3500  L 1159 2956  Q 1341 3275 1631 3429  Q 1922 3584 2338 3584  Q 2397 3584 2469 3576  Q 2541 3569 2628 3553  L 2631 2963  z "
                   id="DejaVuSans-72"
                   transform="scale(0.015625)" />
                <path
                   d="M 3116 1747  Q 3116 2381 2855 2742  Q 2594 3103 2138 3103  Q 1681 3103 1420 2742  Q 1159 2381 1159 1747  Q 1159 1113 1420 752  Q 1681 391 2138 391  Q 2594 391 2855 752  Q 3116 1113 3116 1747  z M 1159 2969  Q 1341 3281 1617 3432  Q 1894 3584 2278 3584  Q 2916 3584 3314 3078  Q 3713 2572 3713 1747  Q 3713 922 3314 415  Q 2916 -91 2278 -91  Q 1894 -91 1617 61  Q 1341 213 1159 525  L 1159 0  L 581 0  L 581 4863  L 1159 4863  L 1159 2969  z "
                   id="DejaVuSans-62"
                   transform="scale(0.015625)" />
              </defs>
              <use
                 xlink:href="#DejaVuSans-75"
                 id="use5443" />
              <use
                 x="63.378906"
                 xlink:href="#DejaVuSans-28"
                 id="use5445" />
              <use
                 x="102.392578"
                 xlink:href="#DejaVuSans-74"
                 id="use5447" />
              <use
                 x="141.601562"
                 xlink:href="#DejaVuSans-29"
                 id="use5449" />
              <use
                 x="180.615234"
                 xlink:href="#DejaVuSans-20"
                 id="use5451" />
              <use
                 x="212.402344"
                 xlink:href="#DejaVuSans-28"
                 id="use5453" />
              <use
                 x="251.416016"
                 xlink:href="#DejaVuSans-61"
                 id="use5455" />
              <use
                 x="312.695312"
                 xlink:href="#DejaVuSans-72"
                 id="use5457" />
              <use
                 x="353.808594"
                 xlink:href="#DejaVuSans-62"
                 id="use5459" />
              <use
                 x="417.285156"
                 xlink:href="#DejaVuSans-2e"
                 id="use5461" />
              <use
                 x="449.072266"
                 xlink:href="#DejaVuSans-20"
                 id="use5463" />
              <use
                 x="480.859375"
                 xlink:href="#DejaVuSans-75"
                 id="use5465" />
              <use
                 x="544.238281"
                 xlink:href="#DejaVuSans-2e"
                 id="use5467" />
              <use
                 x="576.025391"
                 xlink:href="#DejaVuSans-29"
                 id="use5469" />
            </g>
          </g>
        </g>
        <g
           id="matplotlib.axis_2">
          <g
             id="ytick_1">
            <g
               id="line2d_6">
              <defs
                 id="defs5476">
                <path
                   d="M 0 0  L -3.5 0  "
                   id="m19830eec20"
                   style="stroke:#000000;stroke-width:0.8;" />
              </defs>
              <g
                 id="g5480">
                <use
                   style="stroke:#000000;stroke-width:0.8;"
                   x="64.1"
                   xlink:href="#m19830eec20"
                   y="166.768372"
                   id="use5478" />
              </g>
            </g>
            <g
               id="text_7">
              <!-- −400 -->
              <g
                 transform="translate(29.632813 170.567591)scale(0.1 -0.1)"
                 id="g5494">
                <defs
                   id="defs5484">
                  <path
                     d="M 2419 4116  L 825 1625  L 2419 1625  L 2419 4116  z M 2253 4666  L 3047 4666  L 3047 1625  L 3713 1625  L 3713 1100  L 3047 1100  L 3047 0  L 2419 0  L 2419 1100  L 313 1100  L 313 1709  L 2253 4666  z "
                     id="DejaVuSans-34"
                     transform="scale(0.015625)" />
                </defs>
                <use
                   xlink:href="#DejaVuSans-2212"
                   id="use5486" />
                <use
                   x="83.789062"
                   xlink:href="#DejaVuSans-34"
                   id="use5488" />
                <use
                   x="147.412109"
                   xlink:href="#DejaVuSans-30"
                   id="use5490" />
                <use
                   x="211.035156"
                   xlink:href="#DejaVuSans-30"
                   id="use5492" />
              </g>
            </g>
          </g>
          <g
             id="ytick_2">
            <g
               id="line2d_7">
              <g
                 id="g5500">
                <use
                   style="stroke:#000000;stroke-width:0.8;"
                   x="64.1"
                   xlink:href="#m19830eec20"
                   y="129.63763"
                   id="use5498" />
              </g>
            </g>
            <g
               id="text_8">
              <!-- −200 -->
              <g
                 transform="translate(29.632813 133.436848)scale(0.1 -0.1)"
                 id="g5514">
                <defs
                   id="defs5504">
                  <path
                     d="M 1228 531  L 3431 531  L 3431 0  L 469 0  L 469 531  Q 828 903 1448 1529  Q 2069 2156 2228 2338  Q 2531 2678 2651 2914  Q 2772 3150 2772 3378  Q 2772 3750 2511 3984  Q 2250 4219 1831 4219  Q 1534 4219 1204 4116  Q 875 4013 500 3803  L 500 4441  Q 881 4594 1212 4672  Q 1544 4750 1819 4750  Q 2544 4750 2975 4387  Q 3406 4025 3406 3419  Q 3406 3131 3298 2873  Q 3191 2616 2906 2266  Q 2828 2175 2409 1742  Q 1991 1309 1228 531  z "
                     id="DejaVuSans-32"
                     transform="scale(0.015625)" />
                </defs>
                <use
                   xlink:href="#DejaVuSans-2212"
                   id="use5506" />
                <use
                   x="83.789062"
                   xlink:href="#DejaVuSans-32"
                   id="use5508" />
                <use
                   x="147.412109"
                   xlink:href="#DejaVuSans-30"
                   id="use5510" />
                <use
                   x="211.035156"
                   xlink:href="#DejaVuSans-30"
                   id="use5512" />
              </g>
            </g>
          </g>
          <g
             id="ytick_3">
            <g
               id="line2d_8">
              <g
                 id="g5520">
                <use
                   style="stroke:#000000;stroke-width:0.8;"
                   x="64.1"
                   xlink:href="#m19830eec20"
                   y="92.506887"
                   id="use5518" />
              </g>
            </g>
            <g
               id="text_9">
              <!-- 0 -->
              <g
                 transform="translate(50.7375 96.306106)scale(0.1 -0.1)"
                 id="g5525">
                <use
                   xlink:href="#DejaVuSans-30"
                   id="use5523" />
              </g>
            </g>
          </g>
          <g
             id="ytick_4">
            <g
               id="line2d_9">
              <g
                 id="g5531">
                <use
                   style="stroke:#000000;stroke-width:0.8;"
                   x="64.1"
                   xlink:href="#m19830eec20"
                   y="55.376145"
                   id="use5529" />
              </g>
            </g>
            <g
               id="text_10">
              <!-- 200 -->
              <g
                 transform="translate(38.0125 59.175364)scale(0.1 -0.1)"
                 id="g5540">
                <use
                   xlink:href="#DejaVuSans-32"
                   id="use5534" />
                <use
                   x="63.623047"
                   xlink:href="#DejaVuSans-30"
                   id="use5536" />
                <use
                   x="127.246094"
                   xlink:href="#DejaVuSans-30"
                   id="use5538" />
              </g>
            </g>
          </g>
          <g
             id="ytick_5">
            <g
               id="line2d_10">
              <g
                 id="g5546">
                <use
                   style="stroke:#000000;stroke-width:0.8;"
                   x="64.1"
                   xlink:href="#m19830eec20"
                   y="18.245403"
                   id="use5544" />
              </g>
            </g>
            <g
               id="text_11">
              <!-- 400 -->
              <g
                 transform="translate(38.0125 22.044622)scale(0.1 -0.1)"
                 id="g5555">
                <use
                   xlink:href="#DejaVuSans-34"
                   id="use5549" />
                <use
                   x="63.623047"
                   xlink:href="#DejaVuSans-30"
                   id="use5551" />
                <use
                   x="127.246094"
                   xlink:href="#DejaVuSans-30"
                   id="use5553" />
              </g>
            </g>
          </g>
          <g
             id="text_12">
            <!-- K ($m^{-2}$) -->
            <g
               transform="translate(23.553125 111.7)rotate(-90)scale(0.1 -0.1)"
               id="g5577">
              <defs
                 id="defs5561">
                <path
                   d="M 628 4666  L 1259 4666  L 1259 2694  L 3353 4666  L 4166 4666  L 1850 2491  L 4331 0  L 3500 0  L 1259 2247  L 1259 0  L 628 0  L 628 4666  z "
                   id="DejaVuSans-4b"
                   transform="scale(0.015625)" />
                <path
                   d="M 5747 2113  L 5338 0  L 4763 0  L 5166 2094  Q 5191 2228 5203 2325  Q 5216 2422 5216 2491  Q 5216 2772 5059 2928  Q 4903 3084 4622 3084  Q 4203 3084 3875 2770  Q 3547 2456 3450 1953  L 3066 0  L 2491 0  L 2900 2094  Q 2925 2209 2937 2307  Q 2950 2406 2950 2484  Q 2950 2769 2794 2926  Q 2638 3084 2363 3084  Q 1938 3084 1609 2770  Q 1281 2456 1184 1953  L 800 0  L 225 0  L 909 3500  L 1484 3500  L 1375 2956  Q 1609 3263 1923 3423  Q 2238 3584 2597 3584  Q 2978 3584 3223 3384  Q 3469 3184 3519 2828  Q 3781 3197 4126 3390  Q 4472 3584 4856 3584  Q 5306 3584 5551 3325  Q 5797 3066 5797 2591  Q 5797 2488 5784 2364  Q 5772 2241 5747 2113  z "
                   id="DejaVuSans-Oblique-6d"
                   transform="scale(0.015625)" />
              </defs>
              <use
                 transform="translate(0 0.765625)"
                 xlink:href="#DejaVuSans-4b"
                 id="use5563" />
              <use
                 transform="translate(65.576172 0.765625)"
                 xlink:href="#DejaVuSans-20"
                 id="use5565" />
              <use
                 transform="translate(97.363281 0.765625)"
                 xlink:href="#DejaVuSans-28"
                 id="use5567" />
              <use
                 transform="translate(136.376953 0.765625)"
                 xlink:href="#DejaVuSans-Oblique-6d"
                 id="use5569" />
              <use
                 transform="translate(238.438958 39.046875)scale(0.7)"
                 xlink:href="#DejaVuSans-2212"
                 id="use5571" />
              <use
                 transform="translate(297.091302 39.046875)scale(0.7)"
                 xlink:href="#DejaVuSans-32"
                 id="use5573" />
              <use
                 transform="translate(344.36181 0.765625)"
                 xlink:href="#DejaVuSans-29"
                 id="use5575" />
            </g>
          </g>
        </g>
        <g
           id="line2d_11">
          <path
             clip-path="url(#p2b2da042ea)"
             d="M 73.786364 166.759307  L 267.513636 18.227273  L 73.786364 166.759307  "
             style="fill:none;stroke:#1f77b4;stroke-linecap:square;stroke-width:1.5;"
             id="path5581" />
        </g>
        <g
           id="line2d_12">
          <path
             clip-path="url(#p2b2da042ea)"
             d="M 73.786364 166.76039  L 87.875618 157.562985  L 96.6814 151.522807  L 103.726028 146.572163  L 116.054132 137.818148  L 124.859918 131.386122  L 151.277268 111.412362  L 154.799583 108.767995  L 156.56074 107.348755  L 160.083058 104.732832  L 163.605372 102.07384  L 165.366529 100.625435  L 168.888843 97.918953  L 170.65 96.390679  L 175.933475 92.277542  L 190.022729 81.215805  L 193.545043 78.509429  L 197.067359 75.728738  L 211.156613 64.42765  L 212.917769 63.143919  L 219.962402 57.500553  L 223.484712 54.743441  L 227.007029 51.653867  L 230.529339 49.019604  L 239.335128 41.908944  L 241.096283 40.381193  L 244.618594 37.520349  L 246.379749 36.081306  L 249.902066 33.420395  L 253.424382 30.265934  L 262.230165 23.308939  L 263.99132 22.097726  L 265.752481 20.733007  L 267.513636 18.822714  L 267.513636 18.822714  L 255.185537 26.758205  L 242.857438 35.061841  L 230.529339 43.880634  L 207.634297 60.635149  L 172.411161 87.554718  L 170.65 88.941698  L 168.888843 90.159215  L 156.56074 99.889522  L 153.038426 102.559756  L 149.516113 105.336809  L 140.71033 112.249215  L 133.6657 118.040233  L 124.859918 124.824181  L 123.098759 126.309903  L 119.576449 129.050172  L 114.292971 133.511609  L 105.487189 140.537059  L 100.203717 144.900874  L 98.442562 146.289435  L 96.6814 147.516799  L 80.830991 160.313009  L 75.547519 164.303836  L 73.786364 166.214129  L 73.786364 166.214129  "
             style="fill:none;stroke:#ff7f0e;stroke-linecap:square;stroke-width:1.5;"
             id="path5584" />
        </g>
        <g
           id="line2d_13">
          <path
             clip-path="url(#p2b2da042ea)"
             d="M 73.786364 166.772727  L 82.592146 164.202697  L 86.114463 162.99194  L 89.636773 161.708021  L 94.920245 159.375774  L 110.770655 151.329719  L 112.531816 150.117406  L 114.292971 149.394481  L 116.054132 148.214833  L 117.815288 147.202652  L 119.576449 145.95399  L 121.337604 145.01097  L 123.098759 143.80761  L 124.859918 142.739036  L 126.621076 141.433308  L 128.382231 140.322779  L 130.143387 138.8553  L 131.904545 137.683531  L 133.6657 136.260899  L 137.188014 134.031622  L 138.949172 132.358305  L 140.71033 131.364023  L 142.471486 130.20967  L 145.993799 127.38324  L 154.799583 121.124361  L 156.56074 119.49786  L 158.321901 118.525894  L 160.083058 117.135098  L 161.844215 116.004146  L 163.605372 114.600053  L 165.366529 112.856896  L 167.127686 111.728974  L 168.888843 110.131889  L 170.65 108.069254  L 174.172318 105.506224  L 175.933475 103.7681  L 179.455789 100.804393  L 181.216946 99.26229  L 184.73926 96.470871  L 186.500415 95.005875  L 188.261572 93.727586  L 191.783887 90.277392  L 193.545043 89.200253  L 195.306201 87.869695  L 202.350828 81.243259  L 204.111983 79.656279  L 205.873142 78.288832  L 211.156613 73.377749  L 212.917769 72.293282  L 218.201243 67.45211  L 219.962402 65.921675  L 221.723557 64.637758  L 223.484712 62.994141  L 227.007029 58.736771  L 228.768184 57.736845  L 232.290501 54.764169  L 234.051656 53.040651  L 235.812811 51.53416  L 239.335128 48.110307  L 241.096283 46.049761  L 242.857438 44.653484  L 244.618594 42.7073  L 246.379749 41.001586  L 248.14091 39.977037  L 249.902066 38.45887  L 251.663227 35.954441  L 253.424382 33.941953  L 255.185537 32.380811  L 256.946693 31.016741  L 258.707854 29.475459  L 260.469009 27.783543  L 262.230165 26.366271  L 263.99132 25.571876  L 265.752481 24.16347  L 267.513636 20.572755  L 267.513636 20.572755  L 260.469009 22.356312  L 253.424382 24.580072  L 246.379749 27.272815  L 242.857438 28.822803  L 235.812811 32.489365  L 232.290501 34.661316  L 228.768184 36.814808  L 227.007029 37.729827  L 225.245873 38.996182  L 223.484712 39.863336  L 221.723557 41.295679  L 219.962402 41.894588  L 218.201243 42.924376  L 216.440088 44.209085  L 214.67893 45.196174  L 211.156613 47.600086  L 207.634297 50.10681  L 205.873142 51.41442  L 204.111983 52.420846  L 200.58967 55.28316  L 198.828514 56.368842  L 195.306201 59.314795  L 193.545043 60.342157  L 191.783887 61.773066  L 190.022729 63.367626  L 181.216946 69.864224  L 179.455789 71.322879  L 174.172318 75.015724  L 172.411161 76.77587  L 170.65 78.27332  L 168.888843 79.092926  L 165.366529 82.345018  L 163.605372 83.608242  L 161.844215 85.237603  L 156.56074 89.660919  L 154.799583 90.808455  L 153.038426 92.240932  L 151.277268 93.922297  L 144.232641 99.302368  L 142.471486 101.347698  L 140.71033 102.645548  L 137.188014 106.36134  L 133.6657 109.607771  L 131.904545 110.906792  L 128.382231 113.840044  L 124.859918 116.491263  L 123.098759 118.383686  L 121.337604 119.683623  L 119.576449 121.243849  L 116.054132 125.324628  L 112.531816 128.446549  L 110.770655 130.400885  L 107.248344 133.020446  L 105.487189 134.787698  L 103.726028 136.717982  L 98.442562 141.595359  L 96.6814 142.454348  L 94.920245 144.125022  L 93.15909 145.98232  L 89.636773 148.574826  L 87.875618 151.000975  L 86.114463 152.899209  L 84.353307 154.341647  L 82.592146 156.060577  L 79.069835 158.307836  L 77.30868 159.581672  L 75.547519 160.996967  L 73.786364 164.587682  L 73.786364 164.587682  "
             style="fill:none;stroke:#2ca02c;stroke-linecap:square;stroke-width:1.5;"
             id="path5587" />
        </g>
        <g
           id="patch_3">
          <path
             d="M 64.1 174.2  L 64.1 10.8  "
             style="fill:none;stroke:#000000;stroke-linecap:square;stroke-linejoin:miter;stroke-width:0.8;"
             id="path5590" />
        </g>
        <g
           id="patch_4">
          <path
             d="M 277.2 174.2  L 277.2 10.8  "
             style="fill:none;stroke:#000000;stroke-linecap:square;stroke-linejoin:miter;stroke-width:0.8;"
             id="path5593" />
        </g>
        <g
           id="patch_5">
          <path
             d="M 64.1 174.2  L 277.2 174.2  "
             style="fill:none;stroke:#000000;stroke-linecap:square;stroke-linejoin:miter;stroke-width:0.8;"
             id="path5596" />
        </g>
        <g
           id="patch_6">
          <path
             d="M 64.1 10.8  L 277.2 10.8  "
             style="fill:none;stroke:#000000;stroke-linecap:square;stroke-linejoin:miter;stroke-width:0.8;"
             id="path5599" />
        </g>
        <g
           id="legend_1">
          <g
             id="patch_7">
            <path
               d="M 71.1 62.834375  L 142.9 62.834375  Q 144.9 62.834375 144.9 60.834375  L 144.9 17.8  Q 144.9 15.8 142.9 15.8  L 71.1 15.8  Q 69.1 15.8 69.1 17.8  L 69.1 60.834375  Q 69.1 62.834375 71.1 62.834375  z "
               style="fill:#ffffff;opacity:0.8;stroke:#cccccc;stroke-linejoin:miter;"
               id="path5602" />
          </g>
          <g
             id="line2d_14">
            <path
               d="M 73.1 23.898438  L 93.1 23.898438  "
               style="fill:none;stroke:#1f77b4;stroke-linecap:square;stroke-width:1.5;"
               id="path5605" />
          </g>
          <g
             id="line2d_15" />
          <g
             id="text_13">
            <!-- $H_\epsilon=0$ -->
            <g
               transform="translate(101.1 27.398438)scale(0.1 -0.1)"
               id="g5622">
              <defs
                 id="defs5612">
                <path
                   d="M 1081 4666  L 1716 4666  L 1344 2753  L 3634 2753  L 4006 4666  L 4641 4666  L 3731 0  L 3097 0  L 3531 2222  L 1241 2222  L 806 0  L 172 0  L 1081 4666  z "
                   id="DejaVuSans-Oblique-48"
                   transform="scale(0.015625)" />
                <path
                   d="M 1263 1888  Q 925 1963 778 2166  Q 669 2309 669 2503  Q 669 3034 1175 3344  Q 1575 3588 2188 3588  Q 2425 3588 2684 3550  Q 2944 3513 3234 3438  L 3134 2916  Q 2847 3006 2606 3047  Q 2359 3088 2138 3088  Q 1766 3088 1522 2944  Q 1228 2772 1228 2522  Q 1228 2356 1381 2241  Q 1563 2103 1925 2103  L 2409 2103  L 2319 1628  L 1856 1628  Q 1425 1628 1172 1469  Q 828 1253 828 916  Q 828 703 1013 563  Q 1244 388 1716 388  Q 2006 388 2284 444  Q 2563 503 2806 619  L 2700 84  Q 2403 -3 2131 -47  Q 1859 -91 1609 -91  Q 866 -91 516 194  Q 250 413 250 781  Q 250 1278 600 1584  Q 859 1813 1263 1888  z "
                   id="DejaVuSans-Oblique-3b5"
                   transform="scale(0.015625)" />
                <path
                   d="M 678 2906  L 4684 2906  L 4684 2381  L 678 2381  L 678 2906  z M 678 1631  L 4684 1631  L 4684 1100  L 678 1100  L 678 1631  z "
                   id="DejaVuSans-3d"
                   transform="scale(0.015625)" />
              </defs>
              <use
                 transform="translate(0 0.78125)"
                 xlink:href="#DejaVuSans-Oblique-48"
                 id="use5614" />
              <use
                 transform="translate(75.195312 -15.625)scale(0.7)"
                 xlink:href="#DejaVuSans-Oblique-3b5"
                 id="use5616" />
              <use
                 transform="translate(135.249023 0.78125)"
                 xlink:href="#DejaVuSans-3d"
                 id="use5618" />
              <use
                 transform="translate(238.520508 0.78125)"
                 xlink:href="#DejaVuSans-30"
                 id="use5620" />
            </g>
          </g>
          <g
             id="line2d_16">
            <path
               d="M 73.1 38.576563  L 93.1 38.576563  "
               style="fill:none;stroke:#ff7f0e;stroke-linecap:square;stroke-width:1.5;"
               id="path5625" />
          </g>
          <g
             id="line2d_17" />
          <g
             id="text_14">
            <!-- $H_\epsilon=0.1$ -->
            <g
               transform="translate(101.1 42.076563)scale(0.1 -0.1)"
               id="g5641">
              <use
                 transform="translate(0 0.78125)"
                 xlink:href="#DejaVuSans-Oblique-48"
                 id="use5629" />
              <use
                 transform="translate(75.195312 -15.625)scale(0.7)"
                 xlink:href="#DejaVuSans-Oblique-3b5"
                 id="use5631" />
              <use
                 transform="translate(135.249023 0.78125)"
                 xlink:href="#DejaVuSans-3d"
                 id="use5633" />
              <use
                 transform="translate(238.520508 0.78125)"
                 xlink:href="#DejaVuSans-30"
                 id="use5635" />
              <use
                 transform="translate(302.143555 0.78125)"
                 xlink:href="#DejaVuSans-2e"
                 id="use5637" />
              <use
                 transform="translate(333.930664 0.78125)"
                 xlink:href="#DejaVuSans-31"
                 id="use5639" />
            </g>
          </g>
          <g
             id="line2d_18">
            <path
               d="M 73.1 53.254688  L 93.1 53.254688  "
               style="fill:none;stroke:#2ca02c;stroke-linecap:square;stroke-width:1.5;"
               id="path5644" />
          </g>
          <g
             id="line2d_19" />
          <g
             id="text_15">
            <!-- $H_\epsilon=0.4$ -->
            <g
               transform="translate(101.1 56.754688)scale(0.1 -0.1)"
               id="g5660">
              <use
                 transform="translate(0 0.78125)"
                 xlink:href="#DejaVuSans-Oblique-48"
                 id="use5648" />
              <use
                 transform="translate(75.195312 -15.625)scale(0.7)"
                 xlink:href="#DejaVuSans-Oblique-3b5"
                 id="use5650" />
              <use
                 transform="translate(135.249023 0.78125)"
                 xlink:href="#DejaVuSans-3d"
                 id="use5652" />
              <use
                 transform="translate(238.520508 0.78125)"
                 xlink:href="#DejaVuSans-30"
                 id="use5654" />
              <use
                 transform="translate(302.143555 0.78125)"
                 xlink:href="#DejaVuSans-2e"
                 id="use5656" />
              <use
                 transform="translate(333.930664 0.78125)"
                 xlink:href="#DejaVuSans-34"
                 id="use5658" />
            </g>
          </g>
        </g>
      </g>
    </g>
    <g
       id="g5691"
       transform="matrix(0.75,0,0,0.75,-14.60644,-201.07143)">
      <path
         id="rect475"
         style="fill:#7f7f7f;stroke:#000000;stroke-width:1.02854"
         d="M 384.73308,470.41643 H 223.95356 v 8.82954 h 160.77952 z"
         sodipodi:nodetypes="ccccc" />
      <path
         style="fill:#ff7f0e;stroke:#000000;stroke-width:1.6493px;stroke-linecap:round;stroke-linejoin:round;stroke-opacity:1"
         d="m 232.06464,452.82248 -8.79625,17.59251 v 8.79627 l 8.79625,17.59249 8.79624,-17.59249 v -8.79627 z"
         id="path477" />
      <text
         xml:space="preserve"
         style="font-size:10.6667px;line-height:1;font-family:'DejaVu Sans';-inkscape-font-specification:'DejaVu Sans, Normal';letter-spacing:0px;word-spacing:0px;writing-mode:lr-tb"
         x="225.27711"
         y="447.73523"
         id="text4489"><tspan
           sodipodi:role="line"
           id="tspan4487"
           x="225.27711"
           y="447.73523"
           style="font-size:10.6667px">Q1</tspan></text>
      <text
         xml:space="preserve"
         style="font-size:10.6667px;line-height:1;font-family:'DejaVu Sans';-inkscape-font-specification:'DejaVu Sans, Normal';letter-spacing:0px;word-spacing:0px;writing-mode:lr-tb"
         x="276.45981"
         y="447.0582"
         id="text4493"><tspan
           sodipodi:role="line"
           id="tspan4491"
           x="276.45981"
           y="447.0582"
           style="font-size:10.6667px">Q2</tspan></text>
      <text
         xml:space="preserve"
         style="font-size:10.6667px;line-height:1;font-family:'DejaVu Sans';-inkscape-font-specification:'DejaVu Sans, Normal';letter-spacing:0px;word-spacing:0px;writing-mode:lr-tb"
         x="329.67358"
         y="447.96091"
         id="text4497"><tspan
           sodipodi:role="line"
           id="tspan4495"
           x="329.67358"
           y="447.96091"
           style="font-size:10.6667px">Q3</tspan></text>
      <text
         xml:space="preserve"
         style="font-size:10.6667px;line-height:1;font-family:'DejaVu Sans';-inkscape-font-specification:'DejaVu Sans, Normal';letter-spacing:0px;word-spacing:0px;writing-mode:lr-tb"
         x="252.58424"
         y="492.41962"
         id="text4501"><tspan
           sodipodi:role="line"
           id="tspan4499"
           x="252.58424"
           y="492.41962"
           style="font-size:10.6667px">1m</tspan></text>
      <text
         xml:space="preserve"
         style="font-size:10.6667px;line-height:1;font-family:'DejaVu Sans';-inkscape-font-specification:'DejaVu Sans, Normal';letter-spacing:0px;word-spacing:0px;writing-mode:lr-tb"
         x="300.15607"
         y="492.41962"
         id="text4505"><tspan
           sodipodi:role="line"
           id="tspan4503"
           x="300.15607"
           y="492.41962"
           style="font-size:10.6667px">1m</tspan></text>
      <text
         xml:space="preserve"
         style="font-size:10.6667px;line-height:1;font-family:'DejaVu Sans';-inkscape-font-specification:'DejaVu Sans, Normal';letter-spacing:0px;word-spacing:0px;writing-mode:lr-tb"
         x="354.72394"
         y="493.32233"
         id="text4509"><tspan
           sodipodi:role="line"
           id="tspan4507"
           x="354.72394"
           y="493.32233"
           style="font-size:10.6667px">1m</tspan></text>
      <path
         style="fill:#ff7f0e;stroke:#000000;stroke-width:1.6493px;stroke-linecap:round;stroke-linejoin:round;stroke-opacity:1"
         d="m 284.84215,452.82248 -8.79625,17.59251 v 8.79627 l 8.79625,17.59249 8.79625,-17.59249 v -8.79627 z"
         id="path1530" />
      <path
         style="fill:#ff7f0e;stroke:#000000;stroke-width:1.6493px;stroke-linecap:round;stroke-linejoin:round;stroke-opacity:1"
         d="m 337.61967,452.82248 -8.79625,17.59251 v 8.79627 l 8.79625,17.59249 8.79624,-17.59249 v -8.79627 z"
         id="path4473" />
    </g>
  </g>
</svg>
