<?xml version="1.0" encoding="utf-8" standalone="no"?>
<!DOCTYPE svg PUBLIC "-//W3C//DTD SVG 1.1//EN"
  "http://www.w3.org/Graphics/SVG/1.1/DTD/svg11.dtd">
<svg height="288pt" version="1.1" viewBox="0 0 432 288" width="432pt" xmlns="http://www.w3.org/2000/svg" xmlns:xlink="http://www.w3.org/1999/xlink">
 <metadata>
  <rdf:RDF xmlns:cc="http://creativecommons.org/ns#" xmlns:dc="http://purl.org/dc/elements/1.1/" xmlns:rdf="http://www.w3.org/1999/02/22-rdf-syntax-ns#">
   <cc:Work>
    <dc:type rdf:resource="http://purl.org/dc/dcmitype/StillImage"/>
    <dc:date>2022-01-20T11:41:18.840365</dc:date>
    <dc:format>image/svg+xml</dc:format>
    <dc:creator>
     <cc:Agent>
      <dc:title>Matplotlib v3.4.2, https://matplotlib.org/</dc:title>
     </cc:Agent>
    </dc:creator>
   </cc:Work>
  </rdf:RDF>
 </metadata>
 <defs>
  <style type="text/css">*{stroke-linecap:butt;stroke-linejoin:round;}</style>
 </defs>
 <g id="figure_1">
  <g id="patch_1">
   <path d="M 0 288 
L 432 288 
L 432 0 
L 0 0 
z
" style="fill:none;"/>
  </g>
  <g id="axes_1">
   <g id="patch_2">
    <path d="M 112.68 252 
L 330.12 252 
L 330.12 34.56 
L 112.68 34.56 
z
" style="fill:#ffffff;"/>
   </g>
   <g id="PolyCollection_1">
    <path clip-path="url(#pa64aa7340f)" d="M 122.563636 110.116652 
L 164.735573 88.773935 
L 122.563636 44.443636 
z
" style="fill:#ffffff;stroke:#000000;"/>
    <path clip-path="url(#pa64aa7340f)" d="M 122.563636 44.443636 
L 164.735573 88.773935 
L 188.236652 44.443636 
z
" style="fill:#ffffff;stroke:#000000;"/>
    <path clip-path="url(#pa64aa7340f)" d="M 214.810909 149.869091 
L 227.989091 136.690909 
L 211.271969 130.948006 
z
" style="fill:#ffffff;stroke:#000000;"/>
    <path clip-path="url(#pa64aa7340f)" d="M 162.289757 138.185518 
L 122.563636 110.116652 
L 122.563636 158.911413 
z
" style="fill:#ffffff;stroke:#000000;"/>
    <path clip-path="url(#pa64aa7340f)" d="M 164.735573 88.773935 
L 122.563636 110.116652 
L 162.289757 138.185518 
z
" style="fill:#ffffff;stroke:#000000;"/>
    <path clip-path="url(#pa64aa7340f)" d="M 237.031413 44.443636 
L 188.236652 44.443636 
L 212.634033 74.706445 
z
" style="fill:#ffffff;stroke:#000000;"/>
    <path clip-path="url(#pa64aa7340f)" d="M 212.634033 74.706445 
L 188.236652 44.443636 
L 164.735573 88.773935 
z
" style="fill:#ffffff;stroke:#000000;"/>
    <path clip-path="url(#pa64aa7340f)" d="M 135.741818 228.938182 
L 148.92 215.76 
L 134.777108 211.944922 
z
" style="fill:#ffffff;stroke:#000000;"/>
    <path clip-path="url(#pa64aa7340f)" d="M 134.777108 211.944922 
L 122.563636 195.165697 
L 122.563636 222.102464 
z
" style="fill:#ffffff;stroke:#000000;"/>
    <path clip-path="url(#pa64aa7340f)" d="M 122.563636 242.116364 
L 135.741818 228.938182 
L 122.563636 222.102464 
z
" style="fill:#ffffff;stroke:#000000;"/>
    <path clip-path="url(#pa64aa7340f)" d="M 122.563636 222.102464 
L 135.741818 228.938182 
L 134.777108 211.944922 
z
" style="fill:#ffffff;stroke:#000000;"/>
    <path clip-path="url(#pa64aa7340f)" d="M 134.777108 211.944922 
L 148.92 215.76 
L 145.150323 196.999103 
z
" style="fill:#ffffff;stroke:#000000;"/>
    <path clip-path="url(#pa64aa7340f)" d="M 145.150323 196.999103 
L 122.563636 195.165697 
L 134.777108 211.944922 
z
" style="fill:#ffffff;stroke:#000000;"/>
    <path clip-path="url(#pa64aa7340f)" d="M 237.031413 44.443636 
L 212.634033 74.706445 
L 248.61824 71.9499 
z
" style="fill:#ffffff;stroke:#000000;"/>
    <path clip-path="url(#pa64aa7340f)" d="M 249.521905 92.332814 
L 262.66328 81.753462 
L 248.61824 71.9499 
z
" style="fill:#ffffff;stroke:#000000;"/>
    <path clip-path="url(#pa64aa7340f)" d="M 248.61824 71.9499 
L 273.285697 44.443636 
L 237.031413 44.443636 
z
" style="fill:#ffffff;stroke:#000000;"/>
    <path clip-path="url(#pa64aa7340f)" d="M 241.167273 123.512727 
L 254.345455 110.334545 
L 230.587158 99.049217 
z
" style="fill:#ffffff;stroke:#000000;"/>
    <path clip-path="url(#pa64aa7340f)" d="M 230.587158 99.049217 
L 254.345455 110.334545 
L 249.521905 92.332814 
z
" style="fill:#ffffff;stroke:#000000;"/>
    <path clip-path="url(#pa64aa7340f)" d="M 249.521905 92.332814 
L 248.61824 71.9499 
L 230.587158 99.049217 
z
" style="fill:#ffffff;stroke:#000000;"/>
    <path clip-path="url(#pa64aa7340f)" d="M 230.587158 99.049217 
L 248.61824 71.9499 
L 212.634033 74.706445 
z
" style="fill:#ffffff;stroke:#000000;"/>
    <path clip-path="url(#pa64aa7340f)" d="M 273.285697 44.443636 
L 290.064922 56.657108 
L 300.222464 44.443636 
z
" style="fill:#ffffff;stroke:#000000;"/>
    <path clip-path="url(#pa64aa7340f)" d="M 280.701818 83.978182 
L 262.66328 81.753462 
L 267.523636 97.156364 
z
" style="fill:#ffffff;stroke:#000000;"/>
    <path clip-path="url(#pa64aa7340f)" d="M 267.523636 97.156364 
L 262.66328 81.753462 
L 249.521905 92.332814 
z
" style="fill:#ffffff;stroke:#000000;"/>
    <path clip-path="url(#pa64aa7340f)" d="M 249.521905 92.332814 
L 254.345455 110.334545 
L 267.523636 97.156364 
z
" style="fill:#ffffff;stroke:#000000;"/>
    <path clip-path="url(#pa64aa7340f)" d="M 201.632727 163.047273 
L 182.035142 158.046841 
L 188.454545 176.225455 
z
" style="fill:#ffffff;stroke:#000000;"/>
    <path clip-path="url(#pa64aa7340f)" d="M 201.632727 163.047273 
L 214.810909 149.869091 
L 194.270939 140.757006 
z
" style="fill:#ffffff;stroke:#000000;"/>
    <path clip-path="url(#pa64aa7340f)" d="M 194.270939 140.757006 
L 182.035142 158.046841 
L 201.632727 163.047273 
z
" style="fill:#ffffff;stroke:#000000;"/>
    <path clip-path="url(#pa64aa7340f)" d="M 194.270939 140.757006 
L 214.810909 149.869091 
L 211.271969 130.948006 
z
" style="fill:#ffffff;stroke:#000000;"/>
    <path clip-path="url(#pa64aa7340f)" d="M 162.289757 138.185518 
L 182.035142 158.046841 
L 194.270939 140.757006 
z
" style="fill:#ffffff;stroke:#000000;"/>
    <path clip-path="url(#pa64aa7340f)" d="M 122.563636 158.911413 
L 122.563636 195.165697 
L 146.209319 171.481863 
z
" style="fill:#ffffff;stroke:#000000;"/>
    <path clip-path="url(#pa64aa7340f)" d="M 122.563636 195.165697 
L 145.150323 196.999103 
L 146.209319 171.481863 
z
" style="fill:#ffffff;stroke:#000000;"/>
    <path clip-path="url(#pa64aa7340f)" d="M 146.209319 171.481863 
L 162.289757 138.185518 
L 122.563636 158.911413 
z
" style="fill:#ffffff;stroke:#000000;"/>
    <path clip-path="url(#pa64aa7340f)" d="M 162.098182 202.581818 
L 145.150323 196.999103 
L 148.92 215.76 
z
" style="fill:#ffffff;stroke:#000000;"/>
    <path clip-path="url(#pa64aa7340f)" d="M 273.285697 44.443636 
L 248.61824 71.9499 
L 274.604194 66.920089 
z
" style="fill:#ffffff;stroke:#000000;"/>
    <path clip-path="url(#pa64aa7340f)" d="M 274.604194 66.920089 
L 248.61824 71.9499 
L 262.66328 81.753462 
z
" style="fill:#ffffff;stroke:#000000;"/>
    <path clip-path="url(#pa64aa7340f)" d="M 274.604194 66.920089 
L 290.064922 56.657108 
L 273.285697 44.443636 
z
" style="fill:#ffffff;stroke:#000000;"/>
    <path clip-path="url(#pa64aa7340f)" d="M 274.604194 66.920089 
L 262.66328 81.753462 
L 280.701818 83.978182 
z
" style="fill:#ffffff;stroke:#000000;"/>
    <path clip-path="url(#pa64aa7340f)" d="M 280.701818 83.978182 
L 293.88 70.8 
L 274.604194 66.920089 
z
" style="fill:#ffffff;stroke:#000000;"/>
    <path clip-path="url(#pa64aa7340f)" d="M 274.604194 66.920089 
L 293.88 70.8 
L 290.064922 56.657108 
z
" style="fill:#ffffff;stroke:#000000;"/>
    <path clip-path="url(#pa64aa7340f)" d="M 241.167273 123.512727 
L 230.587158 99.049217 
L 223.165542 118.689178 
z
" style="fill:#ffffff;stroke:#000000;"/>
    <path clip-path="url(#pa64aa7340f)" d="M 227.989091 136.690909 
L 241.167273 123.512727 
L 223.165542 118.689178 
z
" style="fill:#ffffff;stroke:#000000;"/>
    <path clip-path="url(#pa64aa7340f)" d="M 211.271969 130.948006 
L 227.989091 136.690909 
L 223.165542 118.689178 
z
" style="fill:#ffffff;stroke:#000000;"/>
    <path clip-path="url(#pa64aa7340f)" d="M 320.236364 44.443636 
L 300.222464 44.443636 
L 307.058182 57.621818 
z
" style="fill:#ffffff;stroke:#000000;"/>
    <path clip-path="url(#pa64aa7340f)" d="M 290.064922 56.657108 
L 293.88 70.8 
L 307.058182 57.621818 
z
" style="fill:#ffffff;stroke:#000000;"/>
    <path clip-path="url(#pa64aa7340f)" d="M 307.058182 57.621818 
L 300.222464 44.443636 
L 290.064922 56.657108 
z
" style="fill:#ffffff;stroke:#000000;"/>
    <path clip-path="url(#pa64aa7340f)" d="M 168.854685 169.430272 
L 182.035142 158.046841 
L 162.289757 138.185518 
z
" style="fill:#ffffff;stroke:#000000;"/>
    <path clip-path="url(#pa64aa7340f)" d="M 162.289757 138.185518 
L 146.209319 171.481863 
L 168.854685 169.430272 
z
" style="fill:#ffffff;stroke:#000000;"/>
    <path clip-path="url(#pa64aa7340f)" d="M 175.276364 189.403636 
L 188.454545 176.225455 
L 168.854685 169.430272 
z
" style="fill:#ffffff;stroke:#000000;"/>
    <path clip-path="url(#pa64aa7340f)" d="M 168.854685 169.430272 
L 188.454545 176.225455 
L 182.035142 158.046841 
z
" style="fill:#ffffff;stroke:#000000;"/>
    <path clip-path="url(#pa64aa7340f)" d="M 159.499352 185.977635 
L 146.209319 171.481863 
L 145.150323 196.999103 
z
" style="fill:#ffffff;stroke:#000000;"/>
    <path clip-path="url(#pa64aa7340f)" d="M 159.499352 185.977635 
L 162.098182 202.581818 
L 175.276364 189.403636 
z
" style="fill:#ffffff;stroke:#000000;"/>
    <path clip-path="url(#pa64aa7340f)" d="M 145.150323 196.999103 
L 162.098182 202.581818 
L 159.499352 185.977635 
z
" style="fill:#ffffff;stroke:#000000;"/>
    <path clip-path="url(#pa64aa7340f)" d="M 175.276364 189.403636 
L 168.854685 169.430272 
L 159.499352 185.977635 
z
" style="fill:#ffffff;stroke:#000000;"/>
    <path clip-path="url(#pa64aa7340f)" d="M 159.499352 185.977635 
L 168.854685 169.430272 
L 146.209319 171.481863 
z
" style="fill:#ffffff;stroke:#000000;"/>
    <path clip-path="url(#pa64aa7340f)" d="M 211.271969 130.948006 
L 223.165542 118.689178 
L 199.85071 113.015615 
z
" style="fill:#ffffff;stroke:#000000;"/>
    <path clip-path="url(#pa64aa7340f)" d="M 199.85071 113.015615 
L 194.270939 140.757006 
L 211.271969 130.948006 
z
" style="fill:#ffffff;stroke:#000000;"/>
    <path clip-path="url(#pa64aa7340f)" d="M 199.85071 113.015615 
L 212.634033 74.706445 
L 164.735573 88.773935 
z
" style="fill:#ffffff;stroke:#000000;"/>
    <path clip-path="url(#pa64aa7340f)" d="M 164.735573 88.773935 
L 162.289757 138.185518 
L 199.85071 113.015615 
z
" style="fill:#ffffff;stroke:#000000;"/>
    <path clip-path="url(#pa64aa7340f)" d="M 162.289757 138.185518 
L 194.270939 140.757006 
L 199.85071 113.015615 
z
" style="fill:#ffffff;stroke:#000000;"/>
    <path clip-path="url(#pa64aa7340f)" d="M 199.85071 113.015615 
L 230.587158 99.049217 
L 212.634033 74.706445 
z
" style="fill:#ffffff;stroke:#000000;"/>
    <path clip-path="url(#pa64aa7340f)" d="M 199.85071 113.015615 
L 223.165542 118.689178 
L 230.587158 99.049217 
z
" style="fill:#ffffff;stroke:#000000;"/>
   </g>
   <g id="matplotlib.axis_1">
    <g id="xtick_1">
     <g id="line2d_1">
      <defs>
       <path d="M 0 0 
L 0 3.5 
" id="m5a159b812d" style="stroke:#000000;stroke-width:0.8;"/>
      </defs>
      <g>
       <use style="stroke:#000000;stroke-width:0.8;" x="122.563636" xlink:href="#m5a159b812d" y="252"/>
      </g>
     </g>
     <g id="text_1">
      <!-- 0.0 -->
      <g transform="translate(114.612074 266.598437)scale(0.1 -0.1)">
       <defs>
        <path d="M 2034 4250 
Q 1547 4250 1301 3770 
Q 1056 3291 1056 2328 
Q 1056 1369 1301 889 
Q 1547 409 2034 409 
Q 2525 409 2770 889 
Q 3016 1369 3016 2328 
Q 3016 3291 2770 3770 
Q 2525 4250 2034 4250 
z
M 2034 4750 
Q 2819 4750 3233 4129 
Q 3647 3509 3647 2328 
Q 3647 1150 3233 529 
Q 2819 -91 2034 -91 
Q 1250 -91 836 529 
Q 422 1150 422 2328 
Q 422 3509 836 4129 
Q 1250 4750 2034 4750 
z
" id="DejaVuSans-30" transform="scale(0.015625)"/>
        <path d="M 684 794 
L 1344 794 
L 1344 0 
L 684 0 
L 684 794 
z
" id="DejaVuSans-2e" transform="scale(0.015625)"/>
       </defs>
       <use xlink:href="#DejaVuSans-30"/>
       <use x="63.623047" xlink:href="#DejaVuSans-2e"/>
       <use x="95.410156" xlink:href="#DejaVuSans-30"/>
      </g>
     </g>
    </g>
    <g id="xtick_2">
     <g id="line2d_2">
      <g>
       <use style="stroke:#000000;stroke-width:0.8;" x="162.098182" xlink:href="#m5a159b812d" y="252"/>
      </g>
     </g>
     <g id="text_2">
      <!-- 0.2 -->
      <g transform="translate(154.146619 266.598437)scale(0.1 -0.1)">
       <defs>
        <path d="M 1228 531 
L 3431 531 
L 3431 0 
L 469 0 
L 469 531 
Q 828 903 1448 1529 
Q 2069 2156 2228 2338 
Q 2531 2678 2651 2914 
Q 2772 3150 2772 3378 
Q 2772 3750 2511 3984 
Q 2250 4219 1831 4219 
Q 1534 4219 1204 4116 
Q 875 4013 500 3803 
L 500 4441 
Q 881 4594 1212 4672 
Q 1544 4750 1819 4750 
Q 2544 4750 2975 4387 
Q 3406 4025 3406 3419 
Q 3406 3131 3298 2873 
Q 3191 2616 2906 2266 
Q 2828 2175 2409 1742 
Q 1991 1309 1228 531 
z
" id="DejaVuSans-32" transform="scale(0.015625)"/>
       </defs>
       <use xlink:href="#DejaVuSans-30"/>
       <use x="63.623047" xlink:href="#DejaVuSans-2e"/>
       <use x="95.410156" xlink:href="#DejaVuSans-32"/>
      </g>
     </g>
    </g>
    <g id="xtick_3">
     <g id="line2d_3">
      <g>
       <use style="stroke:#000000;stroke-width:0.8;" x="201.632727" xlink:href="#m5a159b812d" y="252"/>
      </g>
     </g>
     <g id="text_3">
      <!-- 0.4 -->
      <g transform="translate(193.681165 266.598437)scale(0.1 -0.1)">
       <defs>
        <path d="M 2419 4116 
L 825 1625 
L 2419 1625 
L 2419 4116 
z
M 2253 4666 
L 3047 4666 
L 3047 1625 
L 3713 1625 
L 3713 1100 
L 3047 1100 
L 3047 0 
L 2419 0 
L 2419 1100 
L 313 1100 
L 313 1709 
L 2253 4666 
z
" id="DejaVuSans-34" transform="scale(0.015625)"/>
       </defs>
       <use xlink:href="#DejaVuSans-30"/>
       <use x="63.623047" xlink:href="#DejaVuSans-2e"/>
       <use x="95.410156" xlink:href="#DejaVuSans-34"/>
      </g>
     </g>
    </g>
    <g id="xtick_4">
     <g id="line2d_4">
      <g>
       <use style="stroke:#000000;stroke-width:0.8;" x="241.167273" xlink:href="#m5a159b812d" y="252"/>
      </g>
     </g>
     <g id="text_4">
      <!-- 0.6 -->
      <g transform="translate(233.21571 266.598437)scale(0.1 -0.1)">
       <defs>
        <path d="M 2113 2584 
Q 1688 2584 1439 2293 
Q 1191 2003 1191 1497 
Q 1191 994 1439 701 
Q 1688 409 2113 409 
Q 2538 409 2786 701 
Q 3034 994 3034 1497 
Q 3034 2003 2786 2293 
Q 2538 2584 2113 2584 
z
M 3366 4563 
L 3366 3988 
Q 3128 4100 2886 4159 
Q 2644 4219 2406 4219 
Q 1781 4219 1451 3797 
Q 1122 3375 1075 2522 
Q 1259 2794 1537 2939 
Q 1816 3084 2150 3084 
Q 2853 3084 3261 2657 
Q 3669 2231 3669 1497 
Q 3669 778 3244 343 
Q 2819 -91 2113 -91 
Q 1303 -91 875 529 
Q 447 1150 447 2328 
Q 447 3434 972 4092 
Q 1497 4750 2381 4750 
Q 2619 4750 2861 4703 
Q 3103 4656 3366 4563 
z
" id="DejaVuSans-36" transform="scale(0.015625)"/>
       </defs>
       <use xlink:href="#DejaVuSans-30"/>
       <use x="63.623047" xlink:href="#DejaVuSans-2e"/>
       <use x="95.410156" xlink:href="#DejaVuSans-36"/>
      </g>
     </g>
    </g>
    <g id="xtick_5">
     <g id="line2d_5">
      <g>
       <use style="stroke:#000000;stroke-width:0.8;" x="280.701818" xlink:href="#m5a159b812d" y="252"/>
      </g>
     </g>
     <g id="text_5">
      <!-- 0.8 -->
      <g transform="translate(272.750256 266.598437)scale(0.1 -0.1)">
       <defs>
        <path d="M 2034 2216 
Q 1584 2216 1326 1975 
Q 1069 1734 1069 1313 
Q 1069 891 1326 650 
Q 1584 409 2034 409 
Q 2484 409 2743 651 
Q 3003 894 3003 1313 
Q 3003 1734 2745 1975 
Q 2488 2216 2034 2216 
z
M 1403 2484 
Q 997 2584 770 2862 
Q 544 3141 544 3541 
Q 544 4100 942 4425 
Q 1341 4750 2034 4750 
Q 2731 4750 3128 4425 
Q 3525 4100 3525 3541 
Q 3525 3141 3298 2862 
Q 3072 2584 2669 2484 
Q 3125 2378 3379 2068 
Q 3634 1759 3634 1313 
Q 3634 634 3220 271 
Q 2806 -91 2034 -91 
Q 1263 -91 848 271 
Q 434 634 434 1313 
Q 434 1759 690 2068 
Q 947 2378 1403 2484 
z
M 1172 3481 
Q 1172 3119 1398 2916 
Q 1625 2713 2034 2713 
Q 2441 2713 2670 2916 
Q 2900 3119 2900 3481 
Q 2900 3844 2670 4047 
Q 2441 4250 2034 4250 
Q 1625 4250 1398 4047 
Q 1172 3844 1172 3481 
z
" id="DejaVuSans-38" transform="scale(0.015625)"/>
       </defs>
       <use xlink:href="#DejaVuSans-30"/>
       <use x="63.623047" xlink:href="#DejaVuSans-2e"/>
       <use x="95.410156" xlink:href="#DejaVuSans-38"/>
      </g>
     </g>
    </g>
    <g id="xtick_6">
     <g id="line2d_6">
      <g>
       <use style="stroke:#000000;stroke-width:0.8;" x="320.236364" xlink:href="#m5a159b812d" y="252"/>
      </g>
     </g>
     <g id="text_6">
      <!-- 1.0 -->
      <g transform="translate(312.284801 266.598437)scale(0.1 -0.1)">
       <defs>
        <path d="M 794 531 
L 1825 531 
L 1825 4091 
L 703 3866 
L 703 4441 
L 1819 4666 
L 2450 4666 
L 2450 531 
L 3481 531 
L 3481 0 
L 794 0 
L 794 531 
z
" id="DejaVuSans-31" transform="scale(0.015625)"/>
       </defs>
       <use xlink:href="#DejaVuSans-31"/>
       <use x="63.623047" xlink:href="#DejaVuSans-2e"/>
       <use x="95.410156" xlink:href="#DejaVuSans-30"/>
      </g>
     </g>
    </g>
   </g>
   <g id="matplotlib.axis_2">
    <g id="ytick_1">
     <g id="line2d_7">
      <defs>
       <path d="M 0 0 
L -3.5 0 
" id="m026e17a956" style="stroke:#000000;stroke-width:0.8;"/>
      </defs>
      <g>
       <use style="stroke:#000000;stroke-width:0.8;" x="112.68" xlink:href="#m026e17a956" y="242.116364"/>
      </g>
     </g>
     <g id="text_7">
      <!-- 0.0 -->
      <g transform="translate(89.776875 245.915582)scale(0.1 -0.1)">
       <use xlink:href="#DejaVuSans-30"/>
       <use x="63.623047" xlink:href="#DejaVuSans-2e"/>
       <use x="95.410156" xlink:href="#DejaVuSans-30"/>
      </g>
     </g>
    </g>
    <g id="ytick_2">
     <g id="line2d_8">
      <g>
       <use style="stroke:#000000;stroke-width:0.8;" x="112.68" xlink:href="#m026e17a956" y="202.581818"/>
      </g>
     </g>
     <g id="text_8">
      <!-- 0.2 -->
      <g transform="translate(89.776875 206.381037)scale(0.1 -0.1)">
       <use xlink:href="#DejaVuSans-30"/>
       <use x="63.623047" xlink:href="#DejaVuSans-2e"/>
       <use x="95.410156" xlink:href="#DejaVuSans-32"/>
      </g>
     </g>
    </g>
    <g id="ytick_3">
     <g id="line2d_9">
      <g>
       <use style="stroke:#000000;stroke-width:0.8;" x="112.68" xlink:href="#m026e17a956" y="163.047273"/>
      </g>
     </g>
     <g id="text_9">
      <!-- 0.4 -->
      <g transform="translate(89.776875 166.846491)scale(0.1 -0.1)">
       <use xlink:href="#DejaVuSans-30"/>
       <use x="63.623047" xlink:href="#DejaVuSans-2e"/>
       <use x="95.410156" xlink:href="#DejaVuSans-34"/>
      </g>
     </g>
    </g>
    <g id="ytick_4">
     <g id="line2d_10">
      <g>
       <use style="stroke:#000000;stroke-width:0.8;" x="112.68" xlink:href="#m026e17a956" y="123.512727"/>
      </g>
     </g>
     <g id="text_10">
      <!-- 0.6 -->
      <g transform="translate(89.776875 127.311946)scale(0.1 -0.1)">
       <use xlink:href="#DejaVuSans-30"/>
       <use x="63.623047" xlink:href="#DejaVuSans-2e"/>
       <use x="95.410156" xlink:href="#DejaVuSans-36"/>
      </g>
     </g>
    </g>
    <g id="ytick_5">
     <g id="line2d_11">
      <g>
       <use style="stroke:#000000;stroke-width:0.8;" x="112.68" xlink:href="#m026e17a956" y="83.978182"/>
      </g>
     </g>
     <g id="text_11">
      <!-- 0.8 -->
      <g transform="translate(89.776875 87.777401)scale(0.1 -0.1)">
       <use xlink:href="#DejaVuSans-30"/>
       <use x="63.623047" xlink:href="#DejaVuSans-2e"/>
       <use x="95.410156" xlink:href="#DejaVuSans-38"/>
      </g>
     </g>
    </g>
    <g id="ytick_6">
     <g id="line2d_12">
      <g>
       <use style="stroke:#000000;stroke-width:0.8;" x="112.68" xlink:href="#m026e17a956" y="44.443636"/>
      </g>
     </g>
     <g id="text_12">
      <!-- 1.0 -->
      <g transform="translate(89.776875 48.242855)scale(0.1 -0.1)">
       <use xlink:href="#DejaVuSans-31"/>
       <use x="63.623047" xlink:href="#DejaVuSans-2e"/>
       <use x="95.410156" xlink:href="#DejaVuSans-30"/>
      </g>
     </g>
    </g>
   </g>
   <g id="patch_3">
    <path d="M 112.68 252 
L 112.68 34.56 
" style="fill:none;stroke:#000000;stroke-linecap:square;stroke-linejoin:miter;stroke-width:0.8;"/>
   </g>
   <g id="patch_4">
    <path d="M 330.12 252 
L 330.12 34.56 
" style="fill:none;stroke:#000000;stroke-linecap:square;stroke-linejoin:miter;stroke-width:0.8;"/>
   </g>
   <g id="patch_5">
    <path d="M 112.68 252 
L 330.12 252 
" style="fill:none;stroke:#000000;stroke-linecap:square;stroke-linejoin:miter;stroke-width:0.8;"/>
   </g>
   <g id="patch_6">
    <path d="M 112.68 34.56 
L 330.12 34.56 
" style="fill:none;stroke:#000000;stroke-linecap:square;stroke-linejoin:miter;stroke-width:0.8;"/>
   </g>
  </g>
 </g>
 <defs>
  <clipPath id="pa64aa7340f">
   <rect height="217.44" width="217.44" x="112.68" y="34.56"/>
  </clipPath>
 </defs>
</svg>
